<?xml version="1.0" encoding="utf-8"?>
<!-- Generator: Adobe Illustrator 19.2.1, SVG Export Plug-In . SVG Version: 6.00 Build 0)  -->
<svg version="1.1" id="Capa_1" xmlns="http://www.w3.org/2000/svg" xmlns:xlink="http://www.w3.org/1999/xlink" x="0px" y="0px"
	 viewBox="0 0 41 41" style="enable-background:new 0 0 41 41;" xml:space="preserve">
<style type="text/css">
	.st0{fill:#FFFFFF;}
</style>
<path class="st0" d="M20.3,5C11.8,5,4.9,11.9,4.9,20.4s6.9,15.4,15.4,15.4s15.4-6.9,15.4-15.4C35.7,11.9,28.8,5,20.3,5z M20.3,32.8
	c-6.9,0-12.4-5.6-12.4-12.4S13.5,8,20.3,8s12.4,5.6,12.4,12.4C32.7,27.3,27.2,32.8,20.3,32.8z M27,16.9c0,4.2-4.5,4.2-4.5,5.7V23
	c0,0.4-0.4,0.7-0.7,0.7h-2.9c-0.4,0-0.7-0.4-0.7-0.7v-0.6c0-2.3,1.7-3.1,3-3.8c1.1-0.6,1.8-1.1,1.8-1.8c0-1.1-1.3-1.8-2.5-1.8
	c-1.4,0-2.1,0.7-3,1.9c-0.2,0.4-0.7,0.4-1.1,0.1l-1.7-1.3c-0.4-0.2-0.4-0.7-0.1-1.1c1.4-2.1,3.3-3.3,6.2-3.3
	C23.8,11.5,27,13.8,27,16.9z M22.9,27.3c0,1.4-1.2,2.6-2.6,2.6s-2.6-1.2-2.6-2.6s1.2-2.6,2.6-2.6S22.9,25.9,22.9,27.3z"/>
</svg>
