<?xml version="1.0" encoding="utf-8"?>
<!-- Generator: Adobe Illustrator 19.2.1, SVG Export Plug-In . SVG Version: 6.00 Build 0)  -->
<svg version="1.1" id="Capa_1" xmlns="http://www.w3.org/2000/svg" xmlns:xlink="http://www.w3.org/1999/xlink" x="0px" y="0px"
	 viewBox="0 0 92.3 112.5" style="enable-background:new 0 0 92.3 112.5;" xml:space="preserve">
<style type="text/css">
	.st0{fill:#12100D;}
</style>
<g>
	<path class="st0" d="M6.5,4.1c-1.3,0-2.3,1-2.3,2.3V106c0,1.3,1,2.3,2.3,2.3h79.4c1.3,0,2.3-1,2.3-2.3V6.5c0-1.3-1-2.3-2.3-2.3H6.5
		z M85.8,112.5H6.5c-3.6,0-6.5-2.9-6.5-6.5V6.5C0,2.9,2.9,0,6.5,0h79.4c3.6,0,6.5,2.9,6.5,6.5V106C92.3,109.6,89.4,112.5,85.8,112.5
		"/>
	<path class="st0" d="M13.3,88.9c0.2,0.1,0.4,0.2,0.8,0.3c0.4,0.1,0.9,0.2,1.4,0.3c0.5,0.1,1.1,0.2,1.8,0.2c0.7,0.1,1.3,0.1,2,0.1
		c1,0,2-0.1,2.8-0.3c0.9-0.2,1.6-0.5,2.3-1c0.6-0.4,1.1-1,1.5-1.8c0.4-0.7,0.6-1.6,0.6-2.7c0-1-0.1-1.8-0.4-2.5
		c-0.3-0.6-0.6-1.1-1.1-1.5c-0.4-0.4-0.9-0.6-1.5-0.8c-0.6-0.2-1.1-0.3-1.7-0.4c-0.4-0.1-0.8-0.1-1.1-0.2c-0.4-0.1-0.7-0.2-0.9-0.3
		c-0.3-0.1-0.5-0.3-0.7-0.5c-0.2-0.2-0.2-0.5-0.2-0.9c0-0.3,0.1-0.6,0.2-0.8c0.2-0.2,0.4-0.3,0.6-0.4c0.2-0.1,0.5-0.2,0.8-0.2
		c0.3,0,0.5,0,0.8,0c0.4,0,0.8,0,1.2,0.1c0.4,0,0.8,0.1,1.1,0.1c0.3,0.1,0.6,0.1,0.9,0.1c0.2,0,0.4,0.1,0.5,0.1h0.1
		c0.1,0,0.2,0,0.3-0.1c0.1-0.1,0.2-0.1,0.2-0.3l0.4-2.3v-0.1c0-0.1,0-0.2-0.1-0.3c-0.1-0.1-0.1-0.2-0.3-0.2c-0.4-0.1-1-0.3-2-0.5
		c-0.9-0.2-2.1-0.3-3.3-0.3c-0.7,0-1.5,0-2.3,0.1c-0.8,0.1-1.6,0.3-2.3,0.7c-0.7,0.4-1.3,0.9-1.8,1.7c-0.5,0.7-0.7,1.7-0.7,2.9
		c0,1.2,0.2,2.1,0.5,2.7c0.4,0.7,0.8,1.2,1.4,1.6c0.5,0.4,1.1,0.6,1.8,0.8c0.6,0.1,1.2,0.3,1.8,0.4c0.4,0.1,0.7,0.1,1,0.2
		c0.3,0.1,0.5,0.2,0.7,0.3c0.2,0.1,0.3,0.3,0.4,0.5c0.1,0.2,0.1,0.5,0.1,0.8c0,0.6-0.2,1-0.7,1.3c-0.5,0.2-1,0.3-1.5,0.3
		c-0.5,0-0.9,0-1.4-0.1c-0.5-0.1-1-0.1-1.4-0.2c-0.4-0.1-0.8-0.2-1.1-0.2c-0.3-0.1-0.6-0.1-0.7-0.1c0,0-0.1,0-0.1,0c0,0,0,0-0.1,0
		c-0.2,0-0.3,0.2-0.4,0.5L13,88.1c0,0.1,0,0.1,0,0.2c0,0.2,0,0.3,0.1,0.4C13.2,88.8,13.3,88.8,13.3,88.9"/>
	<path class="st0" d="M34.9,83c0.1-0.3,0.3-0.5,0.5-0.6c0.2-0.2,0.4-0.3,0.7-0.3c0.2-0.1,0.5-0.1,0.8-0.2l2.9-0.5v4.7
		c-0.1,0-0.4,0.1-0.8,0.2c-0.5,0.1-1,0.1-1.5,0.1c-0.3,0-0.6,0-0.9-0.1c-0.3,0-0.6-0.1-0.9-0.3c-0.3-0.2-0.5-0.4-0.7-0.7
		c-0.2-0.3-0.3-0.7-0.3-1.2C34.7,83.7,34.8,83.3,34.9,83 M37.3,89.8c1.9,0,3.5-0.1,4.8-0.4c0.5-0.1,1-0.3,1.4-0.4
		c0.4-0.1,0.8-0.3,1-0.6c0.3-0.2,0.5-0.6,0.6-0.9c0.1-0.4,0.2-0.9,0.2-1.5v-8.9c0-0.9-0.2-1.8-0.5-2.5c-0.3-0.7-0.9-1.3-1.7-1.7
		c-0.6-0.3-1.3-0.6-2.1-0.7c-0.8-0.2-1.8-0.2-3-0.2c-0.9,0-1.7,0-2.6,0.1c-0.8,0.1-1.6,0.2-2.2,0.4c-0.7,0.1-1.2,0.3-1.7,0.4
		c-0.5,0.1-0.8,0.2-0.9,0.3c-0.1,0-0.2,0.1-0.3,0.2c-0.1,0.1-0.1,0.2-0.1,0.3c0,0,0,0.1,0,0.1c0,0,0,0.1,0,0.1l0.6,2.4
		c0,0.2,0.1,0.3,0.4,0.3c0.1,0,0.2,0,0.3,0c0.2,0,0.5-0.1,0.8-0.2c0.4-0.1,0.8-0.2,1.3-0.3c0.5-0.1,1-0.2,1.6-0.3
		c0.6-0.1,1.1-0.1,1.6-0.1c1,0,1.7,0.1,2.1,0.3c0.3,0.2,0.5,0.4,0.6,0.6c0.1,0.3,0.1,0.6,0.1,1v0.7l-5.5,0.9
		c-0.5,0.1-1.1,0.2-1.7,0.4c-0.6,0.2-1.1,0.4-1.6,0.8c-0.5,0.4-0.9,0.9-1.2,1.5c-0.3,0.6-0.5,1.5-0.5,2.5c0,1.3,0.2,2.3,0.7,3
		c0.5,0.7,1.1,1.3,1.8,1.7c0.7,0.4,1.6,0.6,2.6,0.7C35.3,89.8,36.3,89.8,37.3,89.8"/>
	<path class="st0" d="M60.4,72.3h-3.9v-1.8c0-0.6,0.1-1.1,0.4-1.3c0.3-0.2,0.8-0.4,1.5-0.4c0.4,0,0.8,0,1.2,0.1
		c0.4,0.1,0.7,0.1,0.9,0.1c0,0,0.1,0,0.2,0c0.1,0,0.2,0,0.2-0.1c0-0.1,0.1-0.2,0.1-0.3l0.4-2.5V66c0-0.1,0-0.2-0.1-0.3
		c0-0.1-0.1-0.2-0.3-0.2c-0.2,0-0.7-0.1-1.5-0.3c-0.7-0.2-1.8-0.2-3-0.2c-2,0-3.4,0.4-4.4,1.3c-0.9,0.9-1.4,2.2-1.4,4v2.1h-2.5
		c-0.4,0-0.6,0.2-0.6,0.5v3c0,0.3,0.2,0.5,0.6,0.5h2.5v12.6c0,0.3,0.2,0.5,0.6,0.5h4.6c0.4,0,0.6-0.2,0.6-0.5V76.3h3.9
		c0.3,0,0.5-0.2,0.5-0.5v-3C61,72.5,60.8,72.3,60.4,72.3"/>
	<path class="st0" d="M73.8,79.9h-5.5c0-0.5,0-0.9,0-1.3c0-0.4,0-0.7,0.1-1.1c0.1-0.6,0.4-1.1,0.7-1.4c0.4-0.3,1.1-0.5,2-0.5
		c0.7,0,1.2,0.2,1.6,0.5c0.4,0.3,0.7,0.8,0.8,1.6c0,0.3,0.1,0.6,0.1,0.8c0,0.3,0,0.6,0,1V79.9z M77.6,73.9c-0.6-0.7-1.5-1.2-2.5-1.5
		c-1-0.3-2.4-0.5-4-0.5c-1.6,0-2.9,0.2-4,0.5c-1.1,0.3-1.9,0.9-2.6,1.6c-0.7,0.7-1.1,1.7-1.4,2.8c-0.3,1.2-0.4,2.6-0.4,4.2
		c0,1.7,0.2,3.1,0.6,4.2c0.4,1.1,0.9,2,1.7,2.7c0.8,0.7,1.7,1.2,2.9,1.5c1.2,0.3,2.5,0.4,4.1,0.4c1.5,0,2.7-0.1,3.8-0.4
		c1.1-0.3,1.8-0.5,2.3-0.7c0.3-0.1,0.4-0.3,0.4-0.6c0-0.1,0-0.2,0-0.2l-0.5-2c-0.1-0.4-0.3-0.6-0.6-0.6c0,0,0,0,0,0c0,0,0,0,0,0
		c-0.3,0.1-0.9,0.2-1.7,0.4c-0.8,0.2-1.7,0.3-2.7,0.3c-1.4,0-2.4-0.2-3.2-0.5c-1-0.5-1.5-1.3-1.5-2.5h10.1c0.4,0,0.6-0.1,0.7-0.3
		s0.2-0.4,0.2-0.7v-1.6c0-1.5-0.1-2.8-0.4-3.9C78.7,75.6,78.2,74.7,77.6,73.9"/>
	<path class="st0" d="M17.8,99.4c-0.2,0.2-0.5,0.3-1,0.3h-1.6v-2.2l1.7,0.1c0.3,0,0.5,0,0.7,0.1c0.2,0,0.3,0.1,0.4,0.2
		c0.1,0.1,0.2,0.2,0.2,0.3c0,0.1,0.1,0.3,0.1,0.5C18.1,99,18,99.2,17.8,99.4 M15.2,94.1h1.7c0.4,0,0.6,0.1,0.8,0.2
		c0.2,0.1,0.3,0.4,0.3,0.7c0,0.4-0.1,0.6-0.3,0.8c-0.2,0.2-0.5,0.2-0.8,0.3l-1.6,0.1V94.1z M19.7,97.4c-0.2-0.1-0.4-0.2-0.7-0.3
		C18.8,97,18.5,97,18.1,97v-0.4c0.3,0,0.5-0.1,0.8-0.2c0.2-0.1,0.4-0.2,0.6-0.3c0.2-0.1,0.3-0.3,0.4-0.5c0.1-0.2,0.1-0.5,0.1-0.8
		c0-0.7-0.2-1.2-0.6-1.5c-0.4-0.3-1.1-0.5-2-0.5h-4.1c-0.1,0-0.1,0-0.1,0.1c0,0-0.1,0.1-0.1,0.1v8c0,0.1,0,0.1,0.1,0.1
		c0,0,0.1,0.1,0.1,0.1h4c1,0,1.8-0.2,2.3-0.5c0.5-0.3,0.8-0.9,0.8-1.7c0-0.4-0.1-0.7-0.2-0.9C20.1,97.7,19.9,97.6,19.7,97.4"/>
	<path class="st0" d="M29,92.7h-1.9c-0.1,0-0.1,0-0.2,0c0,0-0.1,0.1-0.1,0.2l-1.8,3.4L23,92.9c0-0.1-0.1-0.1-0.1-0.2
		c0,0-0.1,0-0.2,0h-2c0,0-0.1,0-0.1,0.1c0,0-0.1,0.1-0.1,0.2c0,0,0,0,0,0.1l3.3,5v2.9c0,0.1,0.1,0.2,0.2,0.2h1.8
		c0.1,0,0.2-0.1,0.2-0.2V98l3.2-5c0,0,0,0,0-0.1c0,0,0-0.1,0-0.1C29.1,92.7,29,92.7,29,92.7"/>
	<path class="st0" d="M35.9,94.8c0.2-0.2,0.4-0.4,0.7-0.5c0.3-0.1,0.7-0.2,1.1-0.2c0.2,0,0.4,0,0.6,0c0.2,0,0.4,0.1,0.6,0.1
		c0.2,0,0.3,0.1,0.5,0.1c0.1,0,0.2,0.1,0.3,0.1c0,0,0.1,0,0.1,0c0.1,0,0.2,0,0.2-0.1l0.2-1c0,0,0-0.1,0-0.1c0,0,0-0.1,0-0.1
		c0,0-0.1-0.1-0.2-0.1c-0.1,0-0.2-0.1-0.4-0.1c-0.2,0-0.3-0.1-0.6-0.1c-0.2,0-0.5-0.1-0.8-0.1c-0.3,0-0.6,0-1,0
		c-0.7,0-1.4,0.1-1.9,0.2c-0.5,0.2-0.9,0.4-1.2,0.7c-0.3,0.3-0.5,0.8-0.7,1.3c-0.1,0.5-0.2,1.2-0.2,2c0,0.8,0.1,1.4,0.2,2
		c0.1,0.5,0.4,1,0.7,1.3c0.3,0.3,0.7,0.6,1.2,0.7c0.5,0.2,1.1,0.2,1.9,0.2c0.4,0,0.7,0,1,0c0.3,0,0.5-0.1,0.8-0.1
		c0.2,0,0.4-0.1,0.6-0.1c0.2,0,0.3-0.1,0.4-0.1c0.1,0,0.1-0.1,0.2-0.1c0,0,0-0.1,0-0.1c0,0,0-0.1,0-0.1l-0.2-1
		c0-0.1-0.1-0.1-0.2-0.1c0,0,0,0-0.1,0c-0.1,0-0.2,0-0.3,0.1c-0.1,0-0.3,0.1-0.5,0.1c-0.2,0-0.4,0.1-0.6,0.1c-0.2,0-0.4,0-0.6,0
		c-0.5,0-0.8-0.1-1.1-0.2c-0.3-0.1-0.5-0.3-0.7-0.5c-0.2-0.2-0.3-0.5-0.3-0.9c-0.1-0.4-0.1-0.8-0.1-1.2c0-0.5,0-0.9,0.1-1.2
		C35.6,95.3,35.7,95,35.9,94.8"/>
	<path class="st0" d="M49.1,92.6L49.1,92.6l-1.8,0.2c-0.1,0-0.2,0.1-0.2,0.2V96h-3.4v-3.3c0,0,0-0.1,0-0.1c0,0-0.1-0.1-0.1-0.1h0
		l-1.8,0.2c-0.1,0-0.2,0.1-0.2,0.2v8c0,0.1,0,0.1,0.1,0.1c0,0,0.1,0,0.1,0h1.8c0.1,0,0.2-0.1,0.2-0.2v-3.4h3.4v3.4
		c0,0.1,0.1,0.2,0.2,0.2h1.7c0.1,0,0.2-0.1,0.2-0.2v-8.2c0,0,0-0.1,0-0.1C49.2,92.6,49.2,92.6,49.1,92.6"/>
	<path class="st0" d="M57.1,98.2c0,0.4-0.1,0.7-0.3,0.9c-0.1,0.2-0.3,0.4-0.6,0.5c-0.3,0.1-0.6,0.2-1,0.2c-0.4,0-0.8-0.1-1-0.2
		c-0.3-0.1-0.5-0.3-0.6-0.5c-0.1-0.2-0.2-0.5-0.3-0.9c0-0.4-0.1-0.8-0.1-1.3c0-0.5,0-0.9,0.1-1.3c0-0.4,0.1-0.7,0.3-0.9
		c0.1-0.2,0.3-0.4,0.6-0.5c0.3-0.1,0.6-0.2,1-0.2c0.4,0,0.8,0.1,1,0.2c0.3,0.1,0.5,0.3,0.6,0.5c0.1,0.2,0.2,0.5,0.3,0.9
		c0,0.4,0.1,0.8,0.1,1.3C57.1,97.4,57.1,97.8,57.1,98.2 M58.5,93.7c-0.3-0.4-0.7-0.7-1.3-0.9c-0.5-0.2-1.2-0.3-2.1-0.3
		c-0.8,0-1.5,0.1-2.1,0.3c-0.5,0.2-1,0.5-1.3,0.9c-0.3,0.4-0.5,0.8-0.6,1.4c-0.1,0.5-0.2,1.1-0.2,1.8c0,0.7,0.1,1.3,0.2,1.8
		c0.1,0.5,0.3,1,0.6,1.4c0.3,0.4,0.7,0.7,1.3,0.9c0.5,0.2,1.2,0.3,2.1,0.3c0.8,0,1.5-0.1,2.1-0.3c0.5-0.2,1-0.5,1.3-0.9
		c0.3-0.4,0.5-0.8,0.6-1.4c0.1-0.5,0.2-1.1,0.2-1.8c0-0.7-0.1-1.3-0.2-1.8C59,94.6,58.8,94.1,58.5,93.7"/>
	<path class="st0" d="M63,92.6L63,92.6l-1.8,0.2c-0.1,0-0.2,0.1-0.2,0.2v8c0,0.1,0,0.1,0.1,0.1c0,0,0.1,0,0.1,0H63
		c0.1,0,0.2-0.1,0.2-0.2v-8.2c0,0,0-0.1,0-0.1C63.1,92.6,63,92.6,63,92.6"/>
	<path class="st0" d="M67.5,94.8c0.2-0.2,0.4-0.4,0.7-0.5c0.3-0.1,0.7-0.2,1.1-0.2c0.2,0,0.4,0,0.6,0c0.2,0,0.4,0.1,0.6,0.1
		c0.2,0,0.3,0.1,0.5,0.1s0.2,0.1,0.3,0.1c0,0,0.1,0,0.1,0c0.1,0,0.2,0,0.2-0.1l0.2-1c0,0,0-0.1,0-0.1c0,0,0-0.1,0-0.1
		c0,0-0.1-0.1-0.2-0.1c-0.1,0-0.2-0.1-0.4-0.1c-0.2,0-0.3-0.1-0.6-0.1c-0.2,0-0.5-0.1-0.8-0.1c-0.3,0-0.6,0-1,0
		c-0.7,0-1.4,0.1-1.9,0.2c-0.5,0.2-0.9,0.4-1.2,0.7c-0.3,0.3-0.5,0.8-0.7,1.3c-0.1,0.5-0.2,1.2-0.2,2c0,0.8,0.1,1.4,0.2,2
		c0.1,0.5,0.4,1,0.7,1.3c0.3,0.3,0.7,0.6,1.2,0.7c0.5,0.2,1.1,0.2,1.9,0.2c0.4,0,0.7,0,1,0c0.3,0,0.5-0.1,0.8-0.1
		c0.2,0,0.4-0.1,0.6-0.1c0.2,0,0.3-0.1,0.4-0.1c0.1,0,0.1-0.1,0.2-0.1c0,0,0-0.1,0-0.1c0,0,0-0.1,0-0.1l-0.2-1
		c0-0.1-0.1-0.1-0.2-0.1c0,0,0,0-0.1,0c-0.1,0-0.2,0-0.3,0.1c-0.1,0-0.3,0.1-0.5,0.1c-0.2,0-0.4,0.1-0.6,0.1c-0.2,0-0.4,0-0.6,0
		c-0.5,0-0.8-0.1-1.1-0.2c-0.3-0.1-0.5-0.3-0.7-0.5c-0.2-0.2-0.3-0.5-0.3-0.9c-0.1-0.4-0.1-0.8-0.1-1.2c0-0.5,0-0.9,0.1-1.2
		C67.2,95.3,67.3,95,67.5,94.8"/>
	<path class="st0" d="M79.1,92.7h-5.7c-0.1,0-0.1,0-0.1,0.1c0,0-0.1,0.1-0.1,0.1v8c0,0.1,0,0.1,0.1,0.1c0,0,0.1,0.1,0.1,0.1h5.7
		c0.1,0,0.2-0.1,0.2-0.2v-1.2c0-0.1-0.1-0.2-0.2-0.2h-3.7v-2h3.6c0.1,0,0.2-0.1,0.2-0.2v-1.2c0-0.1-0.1-0.2-0.2-0.2h-3.6v-1.8h3.7
		c0.1,0,0.2-0.1,0.2-0.2v-1.2C79.3,92.8,79.2,92.7,79.1,92.7"/>
	<path class="st0" d="M16.1,60.2c1.3,0,1.3,0,1.1,1.2c-0.3,2.5-0.6,5-0.9,7.5h13.1c-0.3-1.9-0.4-4.6-0.4-5.4
		c0.1-1.8,0.3-3.6,0.5-5.3c0.1-0.8,0.1-1.6,0.1-2.4c0-2.8,0.4-5.4,1.2-8.1c0-0.1,0.1-0.2,0.1-0.3c0-1.3,0.8-2.1,1.5-2.9
		c0.3-0.4,0.6-0.7,1-0.9c1.4-0.7,2.8-1.3,4.3-1.9c0.5-0.2,1-0.3,1.4-0.4c-0.4-1.6,0.5-2.7,1-3.9c0.6-1.4,2-1.4,3.1-2
		c-0.4-0.8-0.8-1.5-1.1-2.2c-0.1-0.2-0.6-1.3-0.7-1.5c-0.3-0.6-0.5-1.3-0.4-2c0.1-1.1,0-2.2,0-3.3c-0.1-2,0.6-3.7,1.6-5.4
		c0.2-0.3,0.5-0.6,0.7-0.9c0-0.6,0-1.2-0.1-1.8c-0.1-0.8-0.7-1.7-1.4-2.2c-3.7-2.8-7.8-2.3-11,0.9c-0.5,0.5-0.7,1.4-0.8,2.2
		c-0.1,1,0,2.1,0.1,3.2c0,0.4,0.2,0.7-0.5,0.6c-0.2,0-0.5,0.4-0.5,0.7c0,0.7,0.1,1.3,0.3,2c0.2,0.8,0.5,1.3,1.3,1.7
		c0.3,0.1,0.7,0.5,0.7,0.9c0.2,2.2,0.3,4.3,0.5,6.5c0,0.2-0.3,0.5-0.5,0.6c-2,1-4.1,1.4-6.2,1.5c-1.1,0.1-2.1,0.2-3.2,0.3
		c-0.2,0-0.6,0.2-0.8,0.4c-0.6,0.7-1.3,1.4-1.9,2.1c-0.1,0.1-0.1,0.3-0.2,0.4c-1.1,0.4-1.2,1.3-1.5,2.2c-0.1,0.2-0.4,0.5-0.6,0.6
		c-0.9,0.4-1.5,1-1.2,2.1c0,0.1-0.3,0.3-0.5,0.4c-0.4,0.2-0.9,0.2-1.1,0.5c-0.5,0.9-1.3,1.3-2.3,1.6c-0.4,0.1-1,0.5-1,0.8
		c-0.1,1-0.9,1.6-1.5,2.2c-2.1,2.1-1.7,5.9-0.7,7.7c0.5,0.9,1.3,1.6,2.4,1.7c1.6,0.1,3.3,0.2,4.9,0.2C16,60.3,16.1,60.3,16.1,60.2"
		/>
	<path class="st0" d="M74.6,64c-0.1,0.3-0.3,0.7-0.4,0.9c-0.4,0.1-1.1,0.2-1.5,0c0.2-1.1-1.5-1.6-1.3-2.7c0.1-0.9,2.2-1.9,2.4-2.7
		c0.2-0.8-0.5-1.3-0.6-2.3c-0.1-1.4,1-5.7,0.8-7.5c0.9,0.6,1.6,1.5,2.4,2.2c0.1,0,0.1,0.2,0.1,0.4c-0.1,0.2-0.1,0.3-0.2,0.5
		c-0.1,0.7-0.3,1.7-0.3,2.4c0,0.5,0.1,0.7-0.1,1.1c-0.1,0.5-0.3,0.9-0.3,1.4c0,0.3,0,0.6,0,0.9c-0.3,1.7-0.8,3.4-1.2,4.8
		C74.2,63.6,74.6,63.7,74.6,64 M84.3,49.9c-0.2-0.8-1.1-2.9-1.6-3.6c-0.8-1-2.9-4-5-5.6c-0.3-0.6-0.5-1.3-1-1.7
		c-0.1-0.1-0.5-0.1-0.5-0.2c-0.2-0.3-0.1-0.6-0.3-0.9c0,0-0.2-0.1-0.3-0.1c-0.2-0.2-0.4-0.7-0.9-0.4c0.3-0.6-0.5-1.4-0.9-2.3
		c-0.1-0.3-0.4-0.5-0.5-0.6c-3.3-1.5-6.8-2.7-10.4-3.9c-0.1-1-1.6-2-1.6-2s1.8-1.5,1.9-3.2l0.3-0.8c0,0,0.7-0.5,0.7-1.1l0.1-1.1
		c0,0,0.5-1.8-0.5-2.1c0,0-0.1-0.8,0.8-0.7c0,0,1.2,0.2,1.3-0.9c0,0,1.8-0.7-0.7-1.2c0,0,0.5-7.2-6.3-7.6c0,0-6.4-0.4-7.2,6.3
		c0,0,0,0.8-0.2,1c0,0-0.9,0.8-0.6,1.4c0,0,0.2,0.2,0.3,0.3c0.3,0.2,0.9,0.7,0.9,0.7c0.5,0.4,1.1,0.9,1.5,1.4
		c0.7,0.8,1.2,1.6,1.4,2.8c0.2,1.9-0.1,3.8-0.3,5.7c-0.1,1-0.4,2-0.6,3c-0.1,0.5-0.2,0.9-0.7,1c-0.4,0.1-0.4,0.5-0.5,0.8
		c-0.5,1-0.4,1.8,0.5,2.5c0.9,0.7,1.3,1.9,1.7,3c0.3,0.8,0.8,1.1,1.5,1.3c0.8,0.2,1.6,0.5,2.5,0.8c0.6,0.2,1.9,0.3,2.4,0.6
		c0.7,0.4,0.9,0.7,1.3,1.4c0.7,1,1.1,2.2,1.5,3.4c0.3,1.1,0.5,2.2,0.6,3.3c0.4,2.9,0.6,5.9,1.3,8.8c0.3,1.1,0.4,1.8,0.3,2.9
		c-0.2,3-0.6,4.9-0.9,6.7h11.9c0.2-0.6,0.2-0.8,0.4-1.4c0.1-0.3,0.3-0.7,0.5-0.6c0.3,0.1,0.5,0.5,0.8,0.1c0.4-0.8,1-2.1,1.6-3.3
		c0.1,0,0.2-0.1,0.3-0.2c0.2-0.2,0.2-0.6,0.4-0.8c0.2-0.2,0.5-0.3,0.6-0.5c0.1-0.2-0.1-0.5,0-0.8c0.2-0.6,0.7-0.5,0.8-1.2
		c0-0.4,0.1-1.1,0-1.7c0.2-0.7,0.4-1.5,0.6-2.2C83.7,54.7,84.8,52,84.3,49.9"/>
</g>
</svg>
