<?xml version="1.0" encoding="utf-8"?>
<!-- Generator: Adobe Illustrator 19.2.1, SVG Export Plug-In . SVG Version: 6.00 Build 0)  -->
<svg version="1.1" id="Capa_1" xmlns="http://www.w3.org/2000/svg" xmlns:xlink="http://www.w3.org/1999/xlink" x="0px" y="0px"
	 viewBox="0 0 70 74" style="enable-background:new 0 0 70 74;" xml:space="preserve">
<style type="text/css">
	.st0{fill-rule:evenodd;clip-rule:evenodd;fill:#161418;}
	.st1{fill:#FFCF04;}
</style>
<g>
	<g>
		<path class="st0" d="M5.1,45.5c0.8,0,0.8,0,0.7,0.7c-0.2,1.5-0.4,3-0.5,4.5h7.9c-0.2-1.2-0.3-2.8-0.2-3.3c0.1-1.1,0.2-2.1,0.3-3.2
			c0-0.5,0.1-1,0.1-1.5c0-1.7,0.3-3.3,0.7-4.9c0-0.1,0-0.1,0-0.2c0-0.8,0.5-1.3,0.9-1.8c0.2-0.2,0.4-0.4,0.6-0.5
			c0.8-0.4,1.7-0.8,2.6-1.2c0.3-0.1,0.6-0.2,0.9-0.2c-0.2-0.9,0.3-1.6,0.6-2.3c0.4-0.8,1.2-0.9,1.9-1.2c-0.2-0.5-0.5-0.9-0.7-1.3
			c-0.1-0.1-0.4-0.8-0.4-0.9c-0.2-0.4-0.3-0.8-0.2-1.2c0.1-0.7,0-1.3,0-2c0-1.2,0.4-2.3,1-3.2c0.1-0.2,0.3-0.4,0.5-0.5
			c0-0.4,0-0.7-0.1-1.1c-0.1-0.5-0.4-1-0.8-1.3c-2.2-1.7-4.7-1.4-6.7,0.5c-0.3,0.3-0.5,0.9-0.5,1.3c-0.1,0.6,0,1.3,0,1.9
			c0,0.2,0.1,0.4-0.3,0.4c-0.1,0-0.3,0.3-0.3,0.4c0,0.4,0.1,0.8,0.2,1.2c0.1,0.5,0.3,0.8,0.8,1c0.2,0.1,0.4,0.3,0.4,0.5
			c0.1,1.3,0.2,2.6,0.3,3.9c0,0.1-0.2,0.3-0.3,0.4c-1.2,0.6-2.5,0.8-3.8,0.9c-0.6,0-1.3,0.1-1.9,0.2c-0.1,0-0.4,0.1-0.5,0.2
			c-0.4,0.4-0.8,0.9-1.1,1.3c-0.1,0.1-0.1,0.2-0.1,0.2c-0.7,0.2-0.7,0.8-0.9,1.4c0,0.1-0.2,0.3-0.4,0.4c-0.5,0.3-0.9,0.6-0.8,1.3
			c0,0.1-0.2,0.2-0.3,0.3c-0.2,0.1-0.6,0.1-0.7,0.3c-0.3,0.5-0.8,0.8-1.4,1c-0.2,0.1-0.6,0.3-0.6,0.5c-0.1,0.6-0.6,0.9-0.9,1.3
			c-1.3,1.3-1,3.6-0.4,4.7c0.3,0.5,0.8,1,1.5,1c1,0.1,2,0.1,2.9,0.1C5,45.5,5,45.5,5.1,45.5"/>
		<path class="st0" d="M46.2,39.3c-0.1-0.5-0.7-1.8-1-2.2c-0.5-0.6-1.7-2.4-3-3.4c-0.2-0.4-0.3-0.8-0.6-1c-0.1,0-0.3-0.1-0.3-0.1
			c-0.1-0.2-0.1-0.4-0.2-0.5c0,0-0.1,0-0.2-0.1c-0.1-0.1-0.3-0.4-0.5-0.2c0.2-0.4-0.3-0.8-0.5-1.4c-0.1-0.2-0.2-0.3-0.3-0.4
			c-2-0.9-4.1-1.6-6.3-2.3c-0.1-0.6-1-1.2-1-1.2s1.1-0.9,1.1-2l0.2-0.5c0,0,0.4-0.3,0.4-0.7l0.1-0.7c0,0,0.3-1.1-0.3-1.3
			c0,0-0.1-0.5,0.5-0.4c0,0,0.7,0.1,0.8-0.6c0,0,1.1-0.4-0.4-0.7c0,0,0.3-4.4-3.8-4.6c0,0-3.9-0.2-4.3,3.8c0,0,0,0.5-0.1,0.6
			c0,0-0.5,0.5-0.4,0.8c0,0,0.1,0.1,0.2,0.2c0.2,0.1,0.6,0.4,0.6,0.4c0.3,0.3,0.6,0.5,0.9,0.8c0.4,0.5,0.8,1,0.8,1.7
			c0.1,1.2,0,2.3-0.2,3.4c-0.1,0.6-0.2,1.2-0.3,1.8c-0.1,0.3-0.1,0.5-0.4,0.6c-0.3,0-0.2,0.3-0.3,0.5c-0.3,0.6-0.2,1.1,0.3,1.5
			c0.6,0.4,0.8,1.2,1,1.8c0.2,0.5,0.5,0.7,0.9,0.8c0.5,0.1,1,0.3,1.5,0.5c0.4,0.1,1.1,0.2,1.5,0.4c0.4,0.2,0.5,0.4,0.8,0.8
			c0.4,0.6,0.7,1.3,0.9,2.1c0.2,0.6,0.3,1.3,0.4,2c0.3,1.8,0.4,3.6,0.8,5.3c0.2,0.7,0.2,1.1,0.2,1.8c-0.1,1.8-0.4,3-0.6,4h7.2
			c0.1-0.4,0.1-0.5,0.3-0.8c0.1-0.2,0.2-0.4,0.3-0.4c0.2,0,0.3,0.3,0.5,0.1c0.2-0.5,0.6-1.2,1-2c0.1,0,0.1-0.1,0.2-0.1
			c0.1-0.1,0.1-0.3,0.2-0.5c0.1-0.1,0.3-0.2,0.4-0.3c0.1-0.1,0-0.3,0-0.5c0.1-0.3,0.4-0.3,0.5-0.7c0-0.3,0-0.7,0-1
			c0.1-0.4,0.2-0.9,0.4-1.3C45.9,42.2,46.5,40.5,46.2,39.3 M40.3,47.7c-0.1,0.2-0.2,0.4-0.3,0.6c-0.3,0.1-0.7,0.1-0.9,0
			c0.1-0.6-0.9-1-0.8-1.6c0.1-0.5,1.3-1.2,1.4-1.6c0.1-0.5-0.3-0.8-0.4-1.4c-0.1-0.9,0.6-3.4,0.5-4.5c0.5,0.4,1,0.9,1.4,1.3
			c0,0,0.1,0.1,0.1,0.2c0,0.1-0.1,0.2-0.1,0.3c-0.1,0.4-0.2,1-0.2,1.4c0,0.3,0,0.4,0,0.7c-0.1,0.3-0.2,0.5-0.2,0.9
			c0,0.2,0,0.4,0,0.6c-0.2,1-0.5,2.1-0.7,2.9C40.1,47.5,40.4,47.6,40.3,47.7"/>
		<g>
			<path d="M8.3,62.7C8.3,62.9,8.2,63,8,63H4.2c-0.2,0-0.3-0.1-0.3-0.3L1.4,54c0,0,0-0.1,0-0.1c0-0.2,0.1-0.3,0.3-0.3h2.1
				c0.2,0,0.3,0.1,0.4,0.3l1.7,7.5h0.5l1.5-7.4c0.1-0.3,0.2-0.3,0.4-0.3h2.1c0.2,0,0.4,0.1,0.4,0.3c0,0,0,0.1,0,0.1L8.3,62.7z"/>
			<path d="M15.1,63h-2.2c-0.2,0-0.3-0.1-0.3-0.3V54c0-0.2,0.1-0.3,0.3-0.3h2.2c0.2,0,0.3,0.1,0.3,0.3v8.7
				C15.4,62.9,15.3,63,15.1,63z M14.9,52.5h-1.7c-0.3,0-0.5-0.1-0.5-0.5v-2.1c0-0.3,0.2-0.5,0.5-0.5h1.7c0.3,0,0.5,0.1,0.5,0.5V52
				C15.4,52.3,15.2,52.5,14.9,52.5z"/>
			<path d="M23.2,55.4c-1,0-2,0.1-2.3,0.2v7.2c0,0.2-0.1,0.3-0.3,0.3h-2.2c-0.1,0-0.3-0.1-0.3-0.3v-7.9c0-0.5,0.3-0.7,0.8-0.9
				c0.5-0.2,1.4-0.3,2.2-0.4c0.5-0.1,1.2-0.2,1.8-0.2H23c0.2,0,0.3,0,0.4,0.1c0.1,0,0.1,0.1,0.1,0.3V55
				C23.5,55.2,23.5,55.4,23.2,55.4z"/>
			<path d="M29.4,63.3c-2.8,0-4.3-0.8-4.3-3.4v-5.8c0-0.3,0.1-0.4,0.3-0.4l2.1-0.3h0.1c0.2,0,0.3,0.1,0.3,0.3V60
				c0,1,0.3,1.5,1.5,1.5c1.3,0,1.5-0.6,1.5-1.5v-5.9c0-0.3,0.1-0.4,0.3-0.4l2.1-0.3c0,0,0.1,0,0.1,0c0.2,0,0.3,0.1,0.3,0.3v6.2
				C33.7,62.3,32.3,63.3,29.4,63.3z"/>
			<path d="M39.2,63.3c-1.6,0-3-0.4-3.3-0.5c-0.1,0-0.2-0.1-0.2-0.3v-0.1l0.2-1.2C36,61,36,61,36.1,61c0,0,0.1,0,0.1,0
				c0.2,0.1,1.5,0.4,2.7,0.4c0.8,0,1.5-0.3,1.5-1c0-0.9-0.6-0.9-1.5-1.1c-1.2-0.2-3.1-0.4-3.1-3c0-2.7,2.3-3,3.9-3
				c1.4,0,2.6,0.3,2.9,0.4c0.1,0,0.2,0.2,0.2,0.3V54l-0.2,1.2c0,0.1-0.1,0.2-0.3,0.2c0,0,0,0-0.1,0c-0.2,0-1.3-0.3-2.2-0.3
				c-0.7,0-1.6,0.1-1.6,0.9c0,0.9,0.9,1,1.8,1.1c1.4,0.2,2.8,0.6,2.8,2.9C43.2,62.5,41.5,63.3,39.2,63.3z"/>
		</g>
		<g>
			<path d="M9.3,70.3c0,0.1,0,0.1-0.2,0.2c-0.3,0.1-0.9,0.3-1.9,0.3c-2,0-2.8-0.9-2.8-3c0-2.1,0.7-3,2.8-3c1,0,1.6,0.2,1.9,0.3
				c0.1,0,0.2,0.1,0.2,0.2c0,0,0,0,0,0.1l-0.1,0.6c0,0.1-0.1,0.1-0.1,0.1c0,0,0,0-0.1,0c-0.2-0.1-0.9-0.2-1.5-0.2
				c-1.3,0-1.7,0.6-1.7,2.1c0,1.4,0.3,2.1,1.7,2.1c0.6,0,1.2-0.2,1.5-0.2c0,0,0,0,0.1,0c0.1,0,0.1,0,0.1,0.1L9.3,70.3
				C9.3,70.2,9.3,70.2,9.3,70.3z"/>
			<path d="M13,70.7c-2.4,0-2.9-1.2-2.9-3.1c0-1.9,0.5-3.1,2.9-3.1c2.4,0,2.9,1.2,2.9,3.1C15.8,69.5,15.3,70.7,13,70.7z M13,65.5
				c-1.3,0-1.5,0.7-1.5,2.1s0.2,2.1,1.5,2.1c1.3,0,1.5-0.7,1.5-2.1S14.3,65.5,13,65.5z"/>
			<path d="M20.5,70.5c0,0.1-0.1,0.1-0.1,0.1h-2c-0.1,0-0.1-0.1-0.1-0.1l-1.8-5.6c0,0,0,0,0,0c0-0.1,0.1-0.1,0.1-0.1h1.1
				c0.1,0,0.2,0,0.2,0.1l1.3,4.9h0.3l1.3-4.9c0-0.1,0.1-0.1,0.2-0.1H22c0,0,0.1,0.1,0.1,0.1v0L20.5,70.5z"/>
			<path d="M24.2,70.6h-1.1c-0.1,0-0.1,0-0.1-0.1v-5.7c0-0.1,0-0.1,0.1-0.1l1.1-0.1h0c0.1,0,0.1,0.1,0.1,0.1v5.8
				C24.4,70.6,24.3,70.6,24.2,70.6z"/>
			<path d="M28.5,70.6H26c-0.1,0-0.1-0.1-0.1-0.1v-5.7c0-0.1,0.1-0.1,0.1-0.1h2.5c2.1,0,2.7,0.9,2.7,3
				C31.2,69.8,30.5,70.6,28.5,70.6z M28.3,65.6h-1.2v4.1h1.2c1.1,0,1.5-0.4,1.5-2C29.8,66,29.5,65.6,28.3,65.6z"/>
			<path d="M34.4,68.9h-2.2c-0.1,0-0.2,0-0.2-0.2v-0.5c0-0.1,0.1-0.2,0.2-0.2h2.2c0.1,0,0.2,0.1,0.2,0.2v0.5
				C34.6,68.8,34.5,68.9,34.4,68.9z"/>
			<path d="M37.2,70.6h-1c-0.1,0-0.1,0-0.1-0.1v-3l-0.9-0.1c-0.1,0-0.1,0-0.1-0.1v-0.6c0,0,0-0.1,0.1-0.1l2-0.3h0c0,0,0.1,0,0.1,0.1
				v4.1C37.3,70.6,37.2,70.6,37.2,70.6z"/>
			<path d="M38.8,72.7L38.8,72.7c-0.2,0-0.2-0.1-0.2-0.2V72c0-0.2,0.1-0.2,0.2-0.2c0.6,0,2.4,0,2.6-1.8c0,0-0.5,0.2-1.1,0.2
				c-1.3,0-1.8-0.8-1.8-2c0-1.5,0.8-2,2.1-2c1.6,0,2.1,0.9,2.1,2.9C42.7,72,40.9,72.7,38.8,72.7z M41.4,68.6c0-1-0.2-1.5-0.8-1.5
				c-0.6,0-0.8,0.4-0.8,1.1s0.2,1.1,0.8,1.1c0.3,0,0.7-0.1,0.8-0.2C41.3,69.2,41.4,68.9,41.4,68.6L41.4,68.6z"/>
		</g>
	</g>
	<circle class="st1" cx="49.9" cy="20" r="19.3"/>
</g>
</svg>
