<?xml version="1.0" encoding="utf-8"?>
<!-- Generator: Adobe Illustrator 19.2.1, SVG Export Plug-In . SVG Version: 6.00 Build 0)  -->
<svg version="1.1" id="Capa_1" xmlns="http://www.w3.org/2000/svg" xmlns:xlink="http://www.w3.org/1999/xlink" x="0px" y="0px"
	 viewBox="0 0 41 41" style="enable-background:new 0 0 41 41;" xml:space="preserve">
<style type="text/css">
	.st0{fill:#FFFFFF;}
</style>
<g>
	<g>
		<g>
			<path class="st0" d="M29.3,14.6c-2.1-2.2-5-3.4-8.1-3.4h-1.7l2.7-2.7L20.7,7l-5.3,5.2l5.2,5.3l1.5-1.5l-2.7-2.7h1.7
				c5.2,0,9.4,4.2,9.4,9.4s-4.2,9.4-9.4,9.4s-9.4-4.2-9.4-9.4v-1.1H9.6v1.1c0,3,1.3,5.9,3.4,8.1s5,3.4,8.1,3.4c3,0,5.9-1.2,8.1-3.4
				c2.2-2.1,3.4-5,3.4-8.1S31.4,16.7,29.3,14.6z"/>
		</g>
	</g>
</g>
</svg>
